<?xml version="1.0" encoding="UTF-8"?>
<svg id="Layer_1" data-name="Layer 1" xmlns="http://www.w3.org/2000/svg" viewBox="0 0 1447.11 595.28">
  <defs>
    <style>
      .cls-1 {
        fill: #9018ad;
      }

      .cls-2 {
        fill: #2052b6;
      }
    </style>
  </defs>
  <g>
    <path class="cls-1" d="M541.05,153.98h37.05v165.05c0,7.54-1.15,14.05-3.58,19.42-2.43,5.49-6.39,10.86-12.14,16.22-3.58,3.45-8.3,6.13-14.05,7.79-5.75,1.79-12.01,2.55-18.65,2.55s-14.05-1.02-19.8-3.07v-29.25c1.41.89,2.94,1.41,4.6,1.79s3.45.38,5.49.38c3.19,0,6.13-.38,8.69-1.15,2.55-.77,4.98-1.92,7.03-3.19s3.45-2.68,4.22-4.09c.77-1.41,1.15-2.81,1.15-4.47v-168.24h0v.26h0ZM560.47,146.95c-8.05,0-14.18-2.43-18.65-7.41s-6.64-10.86-6.64-17.88,2.17-12.9,6.52-17.88c4.34-4.98,10.6-7.41,18.78-7.41s14.18,2.55,18.65,7.54,6.64,10.99,6.64,17.76-2.04,12.77-6.13,17.37c-4.73,5.24-11.11,7.92-19.16,7.92h0Z"/>
    <path class="cls-1" d="M588.44,152.45h38.07v97.47c0,9.33,3.83,16.99,11.5,22.99,7.66,6.13,16.61,9.2,26.83,9.2s18.78-2.81,26.32-8.56c7.54-5.75,11.24-13.16,11.24-22.36v-98.75h39.86v96.96c0,19.93-8.69,37.3-25.93,52.12-16.1,13.92-33.47,20.95-52.12,20.95s-38.96-6.9-53.65-20.82c-14.69-13.8-22.1-30.91-22.1-51.1v-98.11h0Z"/>
    <path class="cls-1" d="M749.15,322.48v-104.11c0-18.65,6.39-34.62,19.29-48.03,12.9-13.41,28.49-20.06,47.01-20.06s20.18,1.28,27.85,3.96,15.33,7.41,22.99,14.44c7.28-6.52,14.69-11.24,22.1-14.05,7.54-2.81,16.22-4.22,26.32-4.22,18.65,0,34.62,6,48.16,18.01,13.54,12.01,20.31,27.08,20.31,45.09v108.97h-39.86v-105.77c0-8.05-2.81-14.82-8.56-20.44-5.75-5.62-12.65-8.43-20.57-8.43s-13.92,2.81-19.16,8.3c-5.24,5.49-7.79,12.26-7.79,20.06v106.29h-40.5v-105.77c0-8.18-2.94-15.07-8.69-20.57s-12.9-8.3-21.08-8.3-14.18,2.81-19.55,8.43c-5.37,5.62-7.92,12.39-7.92,20.18v106.29l-39.86-.26h-.51,0Z"/>
    <path class="cls-1" d="M1072.86,322.48c-26.7,0-47.9-8.81-63.62-26.44-14.05-15.84-21.08-35.39-21.08-58.51s7.15-43.31,21.59-59.53c16.1-18.14,37.81-27.34,65.15-27.34s47.9,8.81,63.62,26.44c14.05,15.84,21.21,35.39,21.21,58.51s-7.15,43.31-21.59,59.53c-16.1,18.14-37.81,27.21-65.15,27.21h-.13v.13ZM1076.56,186.17c-15.84,0-28.36,5.24-37.69,15.71-8.43,9.45-12.65,21.08-12.65,34.75s3.96,24.4,12.01,33.47c8.94,10.09,21.21,15.07,36.66,15.07s28.36-5.24,37.69-15.71c8.43-9.45,12.65-21.08,12.65-34.75s-3.96-24.4-12.01-33.47c-9.07-10.09-21.21-15.07-36.66-15.07Z"/>
    <path class="cls-1" d="M1162.92,322.86V105.82h35.77v129.41h3.07l41.9-71.54h43.18l-45.35,77.54,44.84,80.61h-41.65l-43.31-72.3h-2.68v73.2h-35.77v.13Z"/>
    <path class="cls-1" d="M1312.51,150.27c-8.18,0-14.56-2.68-19.16-7.92-4.6-5.24-6.9-11.5-6.9-18.65s2.3-12.9,6.77-17.88,10.99-7.41,19.29-7.41,13.54,2.68,18.14,8.18c4.09,4.98,6.13,10.86,6.13,17.88s-2.17,12.77-6.52,18.01c-4.34,5.24-10.22,7.79-17.76,7.79ZM1293.35,161.01h37.05v161.09h-37.05v-161.09h0Z"/>
    <g>
      <path class="cls-1" d="M605.05,407.68c-3.32,0-6.26-.64-8.81-2.04s-4.47-3.19-5.88-5.62c-1.41-2.3-2.04-5.11-2.04-8.05s.64-5.62,2.04-7.92,3.19-3.96,5.37-5.49c2.3-1.41,4.85-2.68,7.54-3.45s5.62-1.53,8.69-1.92,5.88-.64,8.69-.64c0-5.11-1.02-8.56-3.07-10.09-2.04-1.53-4.98-2.43-8.81-2.43s-4.22.26-6.52.89-4.85,1.92-7.79,3.96l-1.41-8.05c2.17-1.66,4.85-3.07,8.05-4.09s6.64-1.53,10.22-1.53,8.3.77,10.99,2.43,4.85,4.34,6.13,8.05,1.92,8.94,1.92,15.46v10.99c0,2.55,0,4.73.38,6.39s.77,2.94,1.66,3.7,2.3,1.28,4.22,1.28h1.02l-1.53,7.92h-.77c-3.19,0-5.62-.26-7.41-.89s-3.07-1.53-3.96-2.68-1.79-2.68-2.43-4.34c-2.04,2.3-4.47,4.22-7.15,5.75s-5.88,2.17-9.33,2.17h0v.26h0ZM606.97,399.76c2.68,0,5.24-.64,7.66-2.04,2.43-1.28,4.47-3.07,6.13-5.24v-12.9c-5.24.26-9.45.64-12.77,1.53s-5.62,2.17-7.15,3.83c-1.53,1.66-2.3,3.83-2.3,6.52s.77,4.98,2.3,6.26,3.58,1.92,6,1.92h0l.13.13Z"/>
      <path class="cls-1" d="M667.39,434.13c-4.98,0-9.33-.64-13.16-1.79-3.83-1.15-6.9-3.07-9.2-5.37s-3.32-5.37-3.32-8.94.77-5.49,2.55-7.54,3.96-3.83,6.9-5.11c-1.79-.89-3.07-1.79-3.96-3.07-.89-1.15-1.41-2.43-1.41-3.83s.51-3.19,1.53-4.47,2.68-2.43,4.85-3.32c-3.07-1.92-5.37-4.47-6.9-7.54s-2.43-6.77-2.43-10.6.89-7.54,2.68-10.73,4.34-5.75,7.66-7.54c3.32-1.79,7.28-2.81,12.01-2.81s4.85.38,7.03,1.15,4.22,1.79,6.13,3.07c1.66-1.02,3.58-1.79,5.88-2.43s4.85-.89,7.54-.89h.89l-1.15,6.64h-5.11c-1.41,0-2.55.26-3.58.64,1.53,1.79,2.68,3.7,3.45,5.88.77,2.17,1.28,4.47,1.28,6.9,0,4.09-.89,7.79-2.68,11.11-1.79,3.19-4.34,5.88-7.66,7.66-3.32,1.92-7.41,2.81-12.01,2.81s-2.55,0-3.83-.26-2.43-.38-3.45-.77c-1.66.51-2.55,1.53-2.55,2.81s.51,1.53,1.41,2.17,2.55,1.02,4.6,1.41l14.44,2.3c5.88.89,10.35,2.68,13.54,5.11s4.73,6,4.73,10.48-1.15,6.9-3.32,9.33-5.24,4.34-9.33,5.62c-4.09,1.28-8.69,1.79-14.18,1.79h0l.13.13ZM668.16,425.31c5.11,0,8.94-.64,11.75-1.92,2.68-1.28,4.09-3.19,4.09-5.75s-.89-3.58-2.55-4.73-4.22-2.04-7.41-2.55l-15.33-2.55c-2.04.89-3.83,2.04-5.24,3.58s-2.3,3.19-2.3,5.24c0,3.07,1.53,5.37,4.6,6.77s7.28,2.04,12.39,2.04h0v-.13ZM664.96,386.22c4.22,0,7.41-1.28,9.58-3.83s3.32-5.75,3.32-9.84-1.15-7.03-3.32-9.45c-2.17-2.43-5.37-3.7-9.58-3.7s-7.41,1.28-9.58,3.7-3.19,5.62-3.19,9.45,1.02,7.28,3.19,9.84,5.37,3.83,9.58,3.83Z"/>
      <path class="cls-1" d="M726.41,407.68c-6.39,0-11.75-1.28-16.1-3.96-4.34-2.68-7.66-6-9.84-10.35s-3.32-9.07-3.32-14.31,1.02-9.71,3.07-13.8,5.11-7.54,9.07-10.09,8.69-3.83,14.31-3.83,8.43.89,12.01,2.68c3.58,1.79,6.26,4.34,8.3,7.79s3.07,7.54,3.07,12.39,0,1.66,0,2.55,0,1.79-.38,2.81h-39.22c.51,4.98,1.66,8.94,3.58,11.75s4.34,4.73,7.28,5.88c2.94,1.15,6,1.66,9.45,1.66s5.11-.26,7.79-.77,5.24-1.28,7.66-2.43l1.28,7.79c-2.04.89-4.6,1.79-7.66,2.81-3.07.89-6.52,1.41-10.48,1.41h.13ZM708.14,372.68h28.49c0-2.55-.51-4.73-1.41-6.64-1.02-1.92-2.43-3.32-4.34-4.34s-4.47-1.53-7.41-1.53c-4.47,0-7.79,1.15-10.22,3.32s-4.09,5.24-5.11,9.2h0Z"/>
      <path class="cls-1" d="M756.94,406.53v-54.04h7.66l2.04,10.35-3.83-1.66c3.58-4.09,7.15-6.64,10.73-7.92s6.9-1.92,10.22-1.92c7.92,0,13.54,2.3,16.99,6.9,3.45,4.6,5.11,10.73,5.11,18.52v29.76h-9.96v-29.76c0-5.75-1.02-9.96-3.19-12.52s-5.75-3.96-10.86-3.96-7.03.77-9.96,2.43c-2.94,1.66-4.98,4.09-6,7.66l1.15-6v42.41h-9.96v-.26h-.13Z"/>
      <path class="cls-1" d="M836.4,407.68c-3.45,0-6.13-.64-8.18-1.92s-3.58-2.81-4.47-4.85-1.41-4.09-1.41-6.26v-34.49h-9.33l.89-7.66h8.43v-13.29l9.96-1.02v14.31h14.18v7.66h-14.18v28.49c0,3.45.26,6,.64,7.54s1.41,2.55,3.07,2.94,4.22.64,7.79.64h2.55l-.77,7.92h-9.2Z"/>
      <path class="cls-1" d="M854.79,340.36v-10.99h9.96v10.99h-9.96ZM854.79,406.53v-54.04h9.96v54.04h-9.96Z"/>
      <path class="cls-1" d="M903.08,407.68c-6.13,0-11.24-1.28-15.33-3.7-4.09-2.43-7.28-5.88-9.33-10.09s-3.19-8.94-3.19-14.05,1.02-10.22,3.07-14.56,5.24-7.66,9.45-10.22c4.22-2.55,9.58-3.7,16.22-3.7s5.49.26,8.05.89,4.73,1.41,6.77,2.3l-1.53,8.69c-2.04-1.02-4.22-1.66-6.39-2.3s-4.6-.77-7.03-.77c-6,0-10.48,1.66-13.67,5.11-3.07,3.45-4.73,8.05-4.73,14.18s1.53,10.6,4.47,14.18,7.54,5.37,13.67,5.37,4.85-.26,7.15-.89,4.47-1.41,6.64-2.43l1.28,7.92c-1.41,1.02-3.58,1.92-6.52,2.81s-5.88,1.28-8.94,1.28h-.13Z"/>
      <path class="cls-1" d="M968.49,407.68c-4.73,0-8.69-.64-11.88-1.66s-5.37-2.17-6.64-3.07l1.15-9.58c1.15,1.02,3.19,2.17,6.26,3.58,2.94,1.28,6.52,2.04,10.6,2.04s6.13-.64,8.05-1.79,2.81-2.81,2.81-4.98-.64-3.45-1.79-4.6c-1.15-1.15-2.68-2.04-4.34-2.81-1.66-.64-3.19-1.15-4.73-1.66-2.43-.64-4.98-1.53-7.66-2.55s-4.85-2.55-6.64-4.6-2.68-4.85-2.68-8.43.64-5.37,2.04-7.92c1.28-2.43,3.45-4.47,6.52-6s6.9-2.3,11.88-2.3,6.52.38,8.81,1.15c2.3.77,4.22,1.53,5.88,2.43l-1.15,9.07c-1.53-1.28-3.45-2.43-5.49-3.32-2.04-.89-4.6-1.41-7.66-1.41s-5.62.64-7.54,1.79-2.94,3.07-2.94,5.49,1.02,4.34,3.07,5.37,5.24,2.17,9.45,3.58c1.28.38,2.81.89,4.6,1.66s3.45,1.66,5.11,2.81,3.07,2.68,4.09,4.6,1.66,4.22,1.66,7.03-.64,4.85-1.66,7.28-3.19,4.6-6.13,6.26-7.28,2.55-12.77,2.55h-.26,0Z"/>
      <path class="cls-1" d="M1002.85,433.23l12.52-29.13-22.48-51.61h10.99l16.86,40.11,15.2-40.11h10.99l-33.09,80.74h-10.99Z"/>
      <path class="cls-1" d="M1069.41,407.68c-4.73,0-8.69-.64-11.88-1.66s-5.37-2.17-6.64-3.07l1.15-9.58c1.15,1.02,3.19,2.17,6.26,3.58,2.94,1.28,6.52,2.04,10.6,2.04s6.13-.64,8.05-1.79,2.81-2.81,2.81-4.98-.64-3.45-1.79-4.6c-1.15-1.15-2.68-2.04-4.34-2.81-1.66-.64-3.19-1.15-4.73-1.66-2.43-.64-4.98-1.53-7.66-2.55-2.68-1.02-4.85-2.55-6.64-4.6-1.79-2.04-2.68-4.85-2.68-8.43s.64-5.37,2.04-7.92c1.28-2.43,3.45-4.47,6.52-6s6.9-2.3,11.88-2.3,6.52.38,8.81,1.15c2.3.77,4.22,1.53,5.88,2.43l-1.15,9.07c-1.53-1.28-3.45-2.43-5.49-3.32s-4.6-1.41-7.66-1.41-5.62.64-7.54,1.79-2.94,3.07-2.94,5.49,1.02,4.34,3.07,5.37,5.24,2.17,9.45,3.58c1.28.38,2.81.89,4.6,1.66s3.45,1.66,5.11,2.81,3.07,2.68,4.09,4.6c1.02,1.92,1.66,4.22,1.66,7.03s-.64,4.85-1.66,7.28-3.19,4.6-6.13,6.26c-2.94,1.66-7.28,2.55-12.77,2.55h-.26Z"/>
      <path class="cls-1" d="M1118.34,407.68c-3.45,0-6.13-.64-8.18-1.92s-3.58-2.81-4.47-4.85-1.41-4.09-1.41-6.26v-34.49h-9.33l.89-7.66h8.43v-13.29l9.96-1.02v14.31h14.18v7.66h-14.18v28.49c0,3.45.26,6,.64,7.54s1.41,2.55,3.07,2.94,4.22.64,7.79.64h2.55l-.77,7.92h-9.2Z"/>
      <path class="cls-1" d="M1162.41,407.68c-6.39,0-11.75-1.28-16.1-3.96-4.34-2.68-7.66-6-9.84-10.35s-3.32-9.07-3.32-14.31,1.02-9.71,3.07-13.8c2.04-4.09,5.11-7.54,9.07-10.09s8.69-3.83,14.31-3.83,8.43.89,12.01,2.68c3.45,1.79,6.26,4.34,8.3,7.79,2.04,3.45,3.07,7.54,3.07,12.39s0,1.66,0,2.55,0,1.79-.38,2.81h-39.22c.51,4.98,1.66,8.94,3.58,11.75s4.34,4.73,7.28,5.88,6,1.66,9.45,1.66,5.11-.26,7.79-.77,5.24-1.28,7.66-2.43l1.28,7.79c-2.04.89-4.6,1.79-7.66,2.81-3.07.89-6.52,1.41-10.48,1.41h.13ZM1144.27,372.68h28.49c0-2.55-.51-4.73-1.41-6.64-1.02-1.92-2.43-3.32-4.34-4.34s-4.47-1.53-7.41-1.53c-4.47,0-7.79,1.15-10.22,3.32s-4.09,5.24-5.11,9.2h0Z"/>
      <path class="cls-1" d="M1192.94,406.53v-54.04h7.66l2.04,10.35-3.7-1.79c3.45-3.58,6.64-6.13,9.84-7.54,3.19-1.41,6.52-2.17,10.09-2.17s5.24.38,7.66,1.28,4.6,2.43,6.64,4.47c1.92,2.17,3.58,5.11,4.73,8.94l-2.81-1.15c1.66-4.22,4.09-7.54,7.41-9.96,3.32-2.43,7.92-3.58,13.54-3.58s8.3.77,11.37,2.55c3.07,1.79,5.37,4.22,7.03,7.66,1.53,3.45,2.3,7.79,2.3,13.16v31.94h-9.96v-31.81c0-5.11-1.02-8.81-2.94-11.11s-5.24-3.45-9.71-3.45-5.75.51-7.66,1.41c-1.92,1.02-3.32,2.17-4.34,3.83s-1.66,3.19-1.92,4.85-.51,3.32-.51,4.85v31.3h-9.96v-29.76c0-4.47-.51-7.79-1.66-10.22-1.15-2.43-2.55-4.09-4.47-4.98s-4.09-1.41-6.64-1.41-6.9.77-9.71,2.43c-2.81,1.66-4.85,4.09-5.75,7.66l1.15-5.37v41.65h-9.96.26Z"/>
      <path class="cls-1" d="M1305.1,407.68c-4.73,0-8.69-.64-11.88-1.66s-5.37-2.17-6.64-3.07l1.15-9.58c1.15,1.02,3.19,2.17,6.26,3.58,2.94,1.28,6.52,2.04,10.6,2.04s6.13-.64,8.05-1.79,2.81-2.81,2.81-4.98-.64-3.45-1.79-4.6c-1.15-1.15-2.68-2.04-4.34-2.81-1.66-.64-3.19-1.15-4.73-1.66-2.43-.64-4.98-1.53-7.66-2.55-2.68-1.02-4.85-2.55-6.64-4.6s-2.68-4.85-2.68-8.43.64-5.37,2.04-7.92c1.28-2.43,3.45-4.47,6.52-6s6.9-2.3,11.88-2.3,6.52.38,8.81,1.15c2.3.77,4.22,1.53,5.88,2.43l-1.15,9.07c-1.53-1.28-3.45-2.43-5.49-3.32s-4.6-1.41-7.66-1.41-5.62.64-7.54,1.79-2.94,3.07-2.94,5.49,1.02,4.34,3.07,5.37,5.24,2.17,9.45,3.58c1.28.38,2.81.89,4.6,1.66s3.45,1.66,5.11,2.81,3.07,2.68,4.09,4.6c1.02,1.92,1.66,4.22,1.66,7.03s-.64,4.85-1.66,7.28-3.19,4.6-6.13,6.26-7.28,2.55-12.77,2.55h-.26Z"/>
    </g>
  </g>
  <g>
    <path class="cls-2" d="M184.04,364.82c-16.61-18.5-22.54-44.22-15.26-68.14,2.42-7.95,6.44-14.73,10.5-21.88,23.3-41.12,47.76-81.61,71.02-122.75,14.29-21.26,44.66-25.29,63.69-7.76,8.05,7.41,12.49,18.59,18.23,27.76l-26.62,46.36-.99-.23-18.25-31.86c-.38-.62-1.22-.81-1.63-.11-5.48,9.6-10.89,19.24-16.43,28.8-16.86,29.15-34.47,58.06-50.72,87.54-4.14,7.51-6.51,13.67-3.49,22.34,6.61,18.98,31.25,21.86,42.45,5.56l95.8-166.07c16.86-26.75,55.24-5.18,41.12,22.87l-96.21,166.7c-24.29,40.24-81.57,46.1-113.2,10.88Z"/>
    <path class="cls-2" d="M374.42,247c.52-.13,1.2-.15,1.48.37,2.59,4.96,5.39,9.83,8.2,14.67,17.03,29.26,34.71,58.38,50.97,88.06,2.07,3.78,4.16,7.49,4.55,11.9,2.05,23.29-26.56,35.21-41.59,17.44-17.02-28.28-33.03-57.2-49.8-85.64l.08-1.34,26.11-45.46Z"/>
    <path class="cls-2" d="M401.31,99.26c25.33-3.05,36.18,31.59,13.68,43.49-17.75,9.39-36.61-4.12-34.7-23.65,1.01-10.29,11.12-18.66,21.01-19.85Z"/>
  </g>
  <rect class="cls-1" x="470.19" y="76.57" width="9.22" height="347.67"/>
</svg>