<?xml version="1.0" encoding="UTF-8"?>
<svg id="Capa_1" data-name="Capa 1" xmlns="http://www.w3.org/2000/svg" viewBox="0 0 799.93 800">
  <defs>
    <style>
      .cls-1 {
        fill: #dc2626;
      }

      .cls-2 {
        fill: #2e68da;
      }
    </style>
  </defs>
  <path class="cls-1" d="M390.85,228.68c-22.28-.02-42.09,10.55-54.67,26.95-12.57-16.37-32.32-26.94-54.55-26.95-42.47-.03-73.67,38.72-68.01,80.82,8.01,59.58,73.17,108.61,105.08,129.32,10.63,6.89,24.28,6.97,34.93.12,32.24-20.74,98.5-70.33,105.35-131.27,4.65-41.37-26.5-78.94-68.14-78.98Z"/>
  <path class="cls-2" d="M760.96,572.68l-112.19-112.19c47.85-120.97,22.95-264.29-74.74-361.98C510.51,34.99,426.04,0,336.2,0S161.89,34.99,98.36,98.51c-131.14,131.15-131.14,344.53,0,475.68,63.53,63.53,147.99,98.52,237.84,98.52,43.26,0,85.26-8.13,124.28-23.63l112.05,112.05c25.07,25.07,58.53,38.88,94.22,38.88s69.15-13.81,94.22-38.88c51.95-51.95,51.95-136.48,0-188.44ZM494.97,495.13c-87.69,87.69-229.86,87.69-317.55,0-87.69-87.69-87.69-229.86,0-317.55,87.69-87.69,229.86-87.69,317.55,0,87.69,87.69,87.69,229.86,0,317.55ZM705.61,705.77c-26.66,26.66-69.89,26.66-96.56,0s-26.66-69.89,0-96.56c26.66-26.66,69.89-26.66,96.56,0s26.66,69.89,0,96.56Z"/>
</svg>