<?xml version="1.0" encoding="iso-8859-1"?>
<!-- Uploaded to: SVG Repo, www.svgrepo.com, Generator: SVG Repo Mixer Tools -->
<svg fill="#2E68DA" height="800px" width="800px" version="1.1" id="Capa_1" xmlns="http://www.w3.org/2000/svg" xmlns:xlink="http://www.w3.org/1999/xlink"
	 viewBox="0 0 351.511 351.511" xml:space="preserve">
<g id="XMLID_71_">
	<path id="XMLID_85_" d="M171.752,100.479c-9.789-0.01-18.492,4.634-24.022,11.841c-5.521-7.194-14.203-11.835-23.97-11.841
		c-18.663-0.011-32.371,17.014-29.884,35.51c3.52,26.179,32.151,47.724,46.173,56.82c4.669,3.029,10.669,3.063,15.35,0.052
		c14.167-9.114,43.281-30.902,46.291-57.678C203.732,117.005,190.045,100.499,171.752,100.479z"/>
	<path id="XMLID_86_" d="M334.375,251.631l-49.294-49.294c21.025-53.154,10.084-116.126-32.84-159.051
		C224.326,15.373,187.213,0,147.737,0C108.26,0,71.147,15.373,43.233,43.286c-57.623,57.624-57.623,151.384,0,209.007
		c27.914,27.914,65.027,43.287,104.504,43.287c19.006,0,37.461-3.573,54.609-10.384l49.233,49.232
		c11.016,11.016,25.719,17.083,41.398,17.083s30.382-6.067,41.398-17.083C357.202,311.601,357.202,274.458,334.375,251.631z
		 M217.501,217.554c-38.529,38.529-100.998,38.529-139.527,0c-38.529-38.529-38.529-100.998,0-139.527
		c38.529-38.529,100.998-38.529,139.527,0C256.03,116.556,256.03,179.024,217.501,217.554z M310.053,310.106
		c-11.716,11.716-30.711,11.716-42.427,0c-11.716-11.716-11.716-30.711,0-42.426c11.716-11.716,30.711-11.716,42.427,0
		C321.768,279.395,321.768,298.39,310.053,310.106z"/>
</g>
</svg>