<?xml version="1.0" encoding="UTF-8"?>
<svg id="Layer_1" data-name="Layer 1" xmlns="http://www.w3.org/2000/svg" viewBox="0 0 225.28 224.97">
  <defs>
    <style>
      .cls-1 {
        fill: #fff;
      }
    </style>
  </defs>
  <path class="cls-1" d="M174.37,18.34c48.47,31.66,65.07,95.5,37.84,147.03-16.91,32.01-49.3,54.56-85.42,59.02-6.48.8-13.02.55-19.55.54l-.21-.34c.95-1.03,1.93-2.09,2.81-3.18,21.45-26.6,22.31-64.18,1.79-91.6-1.18-1.58-3.06-3.36-4.04-4.85-.11-.17-.3-.38-.26-.6l33.55-33.6c.38-.16,3.3,1.4,3.99,1.64,22.28,7.66,38.97-20.6,21.77-36.29-16.7-15.24-42.83,2.55-34.67,23.78.24.63,1.66,3.06,1.42,3.49l-33.98,33.6c-1.17-.42-1.93-1.53-2.78-2.16-25.15-18.64-59.11-19.64-85.38-2.51-3.79,2.47-7.29,5.37-10.56,8.49-.25,0-.44-1.57-.46-1.89-1.67-23.72,5.71-49.37,18.87-68.97C53.38-1.1,122.56-15.5,174.37,18.34Z"/>
  <path class="cls-1" d="M27.53,121.76c6.45-7.33,18.09-6.68,23.56,1.43,7.53,11.17-2.41,25.79-15.5,22.95-10.95-2.38-15.53-15.89-8.05-24.38Z"/>
  <path class="cls-1" d="M84.88,198.74c-8.5-7.65-5.06-22.11,5.87-25.28,12.9-3.74,23.94,10.22,17.13,21.85-4.84,8.25-15.9,9.82-23,3.43Z"/>
</svg>